<?xml version="1.0" standalone="no"?>
<!DOCTYPE svg PUBLIC "-//W3C//DTD SVG 20010904//EN"
 "http://www.w3.org/TR/2001/REC-SVG-20010904/DTD/svg10.dtd">
<svg version="1.0" xmlns="http://www.w3.org/2000/svg"
 width="260.000000pt" height="260.000000pt" viewBox="0 0 260.000000 260.000000"
 preserveAspectRatio="xMidYMid meet">
<metadata>
Created by potrace 1.11, written by Peter Selinger 2001-2013
</metadata>
<g transform="translate(0.000000,260.000000) scale(0.100000,-0.100000)"
fill="#000000" stroke="none">
<path d="M664 2432 c-70 -25 -128 -73 -156 -130 -32 -65 -32 -188 -1 -247 87
-163 315 -196 440 -64 66 70 92 189 60 276 -51 138 -208 213 -343 165z"/>
<path d="M1755 2149 c-119 -17 -217 -70 -300 -160 -187 -206 -181 -488 15
-702 64 -70 162 -121 278 -144 75 -15 88 -15 164 0 152 30 269 107 350 231
105 163 105 379 0 542 -115 176 -303 263 -507 233z"/>
<path d="M999 971 c-42 -14 -127 -58 -164 -87 -98 -75 -157 -234 -138 -372 27
-185 153 -316 340 -352 82 -16 165 -2 260 45 85 42 142 101 187 195 28 59 31
74 31 165 0 138 -23 195 -119 291 -91 91 -151 117 -281 120 -49 2 -102 -1
-116 -5z"/>
</g>
</svg>
